<?xml version="1.0" standalone="no"?>
<!DOCTYPE svg PUBLIC "-//W3C//DTD SVG 20010904//EN"
 "http://www.w3.org/TR/2001/REC-SVG-20010904/DTD/svg10.dtd">
<svg version="1.0" xmlns="http://www.w3.org/2000/svg"
 width="16pt" height="16pt" viewBox="0 0 512.000000 512.000000"
 preserveAspectRatio="xMidYMid meet">

<g transform="translate(0.000000,512.000000) scale(0.100000,-0.100000)"
fill="#ffffff" stroke="none">
<path d="M2330 5110 c-739 -76 -1377 -436 -1817 -1025 -251 -335 -412 -729
-480 -1172 -23 -150 -23 -546 0 -696 108 -704 454 -1287 1012 -1704 336 -251
728 -412 1172 -480 150 -23 546 -23 696 0 704 108 1288 455 1704 1012 252 336
412 728 480 1172 23 150 23 546 0 696 -55 357 -162 662 -334 952 -397 670
-1065 1116 -1845 1231 -123 18 -469 26 -588 14z m1288 -1398 l83 -77 -142
-155 c-78 -85 -153 -167 -166 -181 l-25 -27 46 -78 c147 -255 187 -651 100
-984 -71 -274 -245 -494 -484 -615 -320 -162 -797 -135 -1072 61 l-48 34 -43
-48 c-24 -26 -88 -96 -142 -157 -53 -60 -100 -111 -104 -113 -3 -1 -42 34 -85
77 l-79 80 128 143 c71 79 137 153 148 165 19 21 19 22 -13 68 -108 156 -170
391 -170 640 0 589 315 991 840 1070 290 45 560 -6 767 -142 l52 -34 35 38
c19 21 90 100 158 175 68 75 125 137 128 137 3 0 42 -35 88 -77z" fill="#000000"/>
<path d="M2425 3336 c-144 -28 -241 -82 -343 -190 -123 -132 -180 -301 -189
-556 -4 -133 -2 -170 16 -258 12 -57 34 -131 49 -165 l28 -61 449 490 c247
269 474 515 504 547 52 55 53 58 37 76 -27 30 -144 88 -215 106 -88 22 -249
28 -336 11z" fill="#000000"/>
<path d="M2664 2503 c-259 -279 -486 -525 -504 -547 l-34 -38 25 -19 c37 -29
178 -95 230 -108 78 -18 210 -24 292 -12 259 37 424 178 505 431 63 196 65
463 6 667 -47 162 16 206 -520 -374z" fill="#000000"/>
</g>
</svg>
